HIERARCHY
ROOT Hips
{
	OFFSET -3.958830 18.904000 13.208200
	CHANNELS 6 Xposition Yposition Zposition Zrotation Yrotation Xrotation 
	JOINT LHipJoint
	{
		OFFSET 0.000000 0.000000 0.000000
		CHANNELS 3 Zrotation Yrotation Xrotation
		JOINT LeftUpLeg
		{
			OFFSET 1.800000 -1.400000 0.085000
			CHANNELS 3 Zrotation Yrotation Xrotation
			JOINT LeftLeg
			{
				OFFSET 2.215000 -6.000000 0.000000
				CHANNELS 3 Zrotation Yrotation Xrotation
				JOINT LeftFoot
				{
					OFFSET 2.500000 -6.900000 0.000000
					CHANNELS 3 Zrotation Yrotation Xrotation
					JOINT LeftToeBase
					{
						OFFSET 0.200000 -0.500000 1.950000
						CHANNELS 3 Zrotation Yrotation Xrotation
						End Site
						{
							OFFSET 0.000000 0.000000 0.000000
						}
					}
				}
			}
		}
	}
	JOINT RHipJoint
	{
		OFFSET 0.000000 0.000000 0.000000
		CHANNELS 3 Zrotation Yrotation Xrotation
		JOINT RightUpLeg
		{
			OFFSET -1.800000 -1.400000 0.085000
			CHANNELS 3 Zrotation Yrotation Xrotation
			JOINT RightLeg
			{
				OFFSET -2.215000 -6.000000 0.000000
				CHANNELS 3 Zrotation Yrotation Xrotation
				JOINT RightFoot
				{
					OFFSET -2.500000 -6.900000 0.000000
					CHANNELS 3 Zrotation Yrotation Xrotation
					JOINT RightToeBase
					{
						OFFSET -0.200000 -0.500000 1.950000
						CHANNELS 3 Zrotation Yrotation Xrotation
						End Site
						{
							OFFSET 0.000000 0.000000 0.000000
						}
					}
				}
			}
		}
	}
	JOINT LowerBack
	{
		OFFSET 0.000000 0.000000 0.000000
		CHANNELS 3 Zrotation Yrotation Xrotation
		JOINT Spine
		{
			OFFSET -0.087000 1.940000 -0.288900
			CHANNELS 3 Zrotation Yrotation Xrotation
			JOINT Spine1
			{
				OFFSET 0.000000 1.950000 0.060000
				CHANNELS 3 Zrotation Yrotation Xrotation
				JOINT Neck
				{
					OFFSET 0.000000 0.000000 0.000000
					CHANNELS 3 Zrotation Yrotation Xrotation
					JOINT Neck1
					{
						OFFSET 0.000000 1.600000 0.340000
						CHANNELS 3 Zrotation Yrotation Xrotation
						JOINT Head
						{
							OFFSET 0.000000 1.667000 -0.240000
							CHANNELS 3 Zrotation Yrotation Xrotation
							End Site
							{
								OFFSET 0.000000 0.000000 0.000000
							}
						}
					}
				}
				JOINT LeftShoulder
				{
					OFFSET 0.000000 0.000000 0.000000
					CHANNELS 3 Zrotation Yrotation Xrotation
					JOINT LeftArm
					{
						OFFSET 2.700000 1.550000 -0.730000
						CHANNELS 3 Zrotation Yrotation Xrotation
						JOINT LeftForeArm
						{
							OFFSET 5.450000 0.000000 0.000000
							CHANNELS 3 Zrotation Yrotation Xrotation
							JOINT LeftHand
							{
								OFFSET 3.450000 0.000000 0.000000
								CHANNELS 3 Zrotation Yrotation Xrotation
								JOINT LeftHandIndex1
								{
									OFFSET 0.750000 0.000000 0.000000
									CHANNELS 3 Zrotation Yrotation Xrotation
									End Site
									{
										OFFSET 0.000000 0.000000 0.000000
									}
								}
							}
						}
					}
				}
				JOINT RightShoulder
				{
					OFFSET 0.000000 0.000000 0.000000
					CHANNELS 3 Zrotation Yrotation Xrotation
					JOINT RightArm
					{
						OFFSET -2.700000 1.550000 -0.730000
						CHANNELS 3 Zrotation Yrotation Xrotation
						JOINT RightForeArm
						{
							OFFSET -5.450000 0.000000 0.000000
							CHANNELS 3 Zrotation Yrotation Xrotation
							JOINT RightHand
							{
								OFFSET -3.450000 0.000000 0.000000
								CHANNELS 3 Zrotation Yrotation Xrotation
								JOINT RightHandIndex1
								{
									OFFSET -0.750000 0.000000 0.000000
									CHANNELS 3 Zrotation Yrotation Xrotation
									End Site
									{
										OFFSET 0.000000 0.000000 0.000000
									}
								}
							}
						}
					}
				}
			}
		}
	}
}
MOTION
Frames: 10
Frame Time: 0.016667
0.238350 17.399280 -1.974300 -3.961154 -5.168900 3.275118 -15.046003 13.306964 2.884085 2.127298 -1.011330 -11.338174 -7.712048 5.791584 13.509999 -0.885681 4.939414 3.305153 -0.188760 -0.658220 -0.408650 18.350613 -11.083077 2.866532 -0.347927 1.100246 -10.930489 7.643868 -6.147003 14.407320 -0.312639 -3.995803 3.170136 -0.199970 1.208640 0.665050 -3.780001 -1.295180 -7.253203 10.148529 0.869499 7.723561 -2.925881 1.352692 8.878553 3.035365 -2.085875 -11.550782 -4.670026 6.470421 34.139055 -4.504140 4.785000 -4.547460 -18.981839 -16.988249 6.344623 -52.011933 -9.559636 -1.936754 -17.210657 -24.665049 0.130992 -4.358053 2.636792 0.796110 0.677310 -0.191380 0.417560 13.395681 19.581031 8.461248 55.444346 11.789204 -5.371610 19.456859 28.310600 1.964010 1.697269 -1.182931 -0.610540 0.581440 0.538850 -0.040260 
0.238980 17.398060 -1.977050 -3.910535 -5.181939 3.192713 -15.048933 13.323377 2.893084 2.216243 -1.056447 -11.554721 -7.899859 5.926825 14.021832 -0.875418 4.990283 3.281089 -0.185090 -0.652920 -0.405970 18.340984 -11.086305 2.859602 -0.492429 1.169170 -11.125857 7.755217 -6.235517 14.907354 -0.317339 -4.020495 3.157179 -0.199300 1.204050 0.667530 -3.760352 -1.320949 -7.264845 10.033793 0.857029 7.960354 -2.892625 1.373166 8.814525 3.036862 -2.088692 -11.568968 -4.678548 6.470751 34.093668 -4.522680 4.803290 -4.693360 -18.907950 -16.958991 6.332183 -51.699250 -9.482261 -2.002872 -17.512711 -24.803184 0.202143 -4.354655 2.641822 0.796970 0.674460 -0.186670 0.417520 13.321838 19.578026 8.465552 55.178843 11.736282 -5.422166 19.720138 28.416526 2.026738 1.698543 -1.184834 -0.606110 0.578650 0.536650 -0.039660 
0.240140 17.394120 -1.982770 -3.898441 -5.216053 3.068347 -15.049375 13.346305 2.909410 2.482233 -1.146322 -11.997960 -8.320555 6.202605 14.951886 -0.857943 5.097325 3.233144 -0.179740 -0.643400 -0.402560 18.329530 -11.087228 2.851657 -0.679611 1.311360 -11.504915 7.980372 -6.402959 15.831770 -0.325558 -4.068983 3.135173 -0.195890 1.197460 0.666230 -3.740543 -1.362453 -7.288465 9.989009 0.807692 8.408399 -2.919324 1.399474 8.651695 3.045312 -2.119637 -11.577699 -4.736771 6.492826 33.949085 -4.535840 4.838850 -4.982550 -18.762765 -16.826905 6.270788 -51.041652 -9.331145 -2.089417 -18.214665 -24.993865 0.367214 -4.348553 2.645866 0.799590 0.669290 -0.180530 0.418220 13.148302 19.487418 8.455328 54.689792 11.598973 -5.535519 20.403255 28.713183 2.189052 1.699636 -1.187616 -0.603320 0.579000 0.532340 -0.039430 
0.242180 17.386100 -1.990950 -3.928681 -5.258755 2.932961 -15.047714 13.368837 2.932505 2.896923 -1.286064 -12.660201 -8.881153 6.592844 16.248731 -0.827466 5.254288 3.163257 -0.166380 -0.624940 -0.396180 18.318009 -11.081933 2.844409 -0.919782 1.544169 -12.102283 8.356121 -6.668244 17.198471 -0.341163 -4.156551 3.098071 -0.189920 1.187510 0.668640 -3.723603 -1.413014 -7.320971 10.021306 0.707312 9.001767 -2.997795 1.405049 8.409480 3.059659 -2.185926 -11.583256 -4.848263 6.516561 33.641731 -4.549200 4.863650 -5.313290 -18.501979 -16.589185 6.186582 -50.172474 -9.077650 -2.237546 -19.178696 -25.324012 0.603082 -4.337547 2.661280 0.799780 0.663190 -0.171640 0.423550 12.835484 19.312285 8.423246 53.966227 11.408002 -5.668539 21.575424 29.162423 2.466970 1.702323 -1.201459 -0.594250 0.573470 0.521070 -0.036820 
0.245740 17.373120 -2.001410 -3.966681 -5.257693 2.784508 -15.047946 13.386241 2.968258 3.419713 -1.483135 -13.530265 -9.567645 7.105308 17.898331 -0.787301 5.475836 3.066404 -0.151280 -0.602300 -0.392300 18.304679 -11.062249 2.837866 -1.244068 1.849413 -12.854625 8.852463 -7.023098 18.873827 -0.364622 -4.285086 3.044959 -0.180710 1.177280 0.671690 -3.702568 -1.482273 -7.365965 10.074949 0.545838 9.766074 -3.091575 1.379365 8.055462 3.070155 -2.297011 -11.562764 -5.023963 6.565860 33.153449 -4.544380 4.879530 -5.791380 -18.194158 -16.191866 6.049156 -49.055704 -8.693810 -2.435744 -20.451860 -25.775165 0.923152 -4.325284 2.680111 0.800750 0.656530 -0.160960 0.431240 12.476663 19.008023 8.358678 52.943711 11.119230 -5.843404 23.222025 29.823360 2.884785 1.703481 -1.219541 -0.585110 0.568760 0.508900 -0.032900 
0.249170 17.351120 -2.012890 -3.996179 -5.230351 2.726242 -15.053330 13.373840 3.018433 4.065178 -1.744203 -14.611057 -10.455781 7.750065 19.727464 -0.736771 5.771620 2.944665 -0.137940 -0.583370 -0.386020 18.292441 -11.017364 2.832666 -1.688306 2.240921 -13.817049 9.575262 -7.491877 20.757631 -0.392637 -4.467146 2.971677 -0.170960 1.173220 0.672800 -3.678442 -1.547227 -7.414053 10.074323 0.365957 10.510678 -3.166340 1.331821 7.620999 3.068705 -2.406683 -11.465241 -5.148958 6.613120 32.337443 -4.604420 4.928580 -6.187680 -17.747875 -15.542777 5.835884 -47.827985 -8.231381 -2.635195 -21.965100 -26.363806 1.331558 -4.319995 2.701506 0.796650 0.655360 -0.158020 0.437330 12.004367 18.447408 8.202233 51.767903 10.815748 -5.947599 25.270134 30.568305 3.431256 1.704614 -1.245318 -0.579830 0.565930 0.497560 -0.030210 
0.252700 17.321230 -2.023860 -3.980547 -5.173021 2.756931 -15.065610 13.324846 3.086362 4.770458 -2.053573 -15.822778 -11.515732 8.499754 21.593568 -0.672727 6.127958 2.801182 -0.126090 -0.563480 -0.388250 18.281321 -10.946156 2.829493 -2.299509 2.677145 -14.904071 10.510606 -8.064316 22.646943 -0.426963 -4.702769 2.880156 -0.159050 1.176090 0.678180 -3.649231 -1.601742 -7.467317 9.968553 0.215359 11.164248 -3.221429 1.292173 7.181890 3.061524 -2.459254 -11.350674 -5.134350 6.656992 31.298410 -4.621830 4.979040 -6.429080 -17.239464 -14.836401 5.612736 -46.460488 -7.704182 -2.820056 -23.537625 -26.989595 1.789255 -4.320641 2.732437 0.785060 0.661790 -0.159880 0.447170 11.489321 17.787307 8.029101 50.477967 10.420981 -6.039703 27.435472 31.394919 4.047310 1.701228 -1.281209 -0.573050 0.559710 0.487630 -0.023600 
0.255570 17.284480 -2.033720 -3.930297 -5.088756 2.872436 -15.084235 13.239463 3.172513 5.537898 -2.395457 -17.098101 -12.750613 9.343622 23.374797 -0.596486 6.536933 2.643098 -0.116590 -0.546750 -0.391200 18.272676 -10.842839 2.832874 -3.069918 3.143241 -16.078489 11.695304 -8.745230 24.447822 -0.469365 -4.984206 2.770028 -0.147050 1.184850 0.683590 -3.617847 -1.654978 -7.529257 9.800469 0.078714 11.723259 -3.240993 1.245293 6.702820 3.027461 -2.521084 -11.192924 -5.122769 6.716645 30.144444 -4.618330 5.021650 -6.543510 -16.791287 -14.011301 5.345795 -44.898496 -7.104694 -2.944291 -25.216092 -27.555790 2.302672 -4.326230 2.765768 0.769190 0.671580 -0.165960 0.457230 11.094383 17.005256 7.825426 48.932552 9.895085 -6.093874 29.756495 32.255425 4.761777 1.697991 -1.321491 -0.568270 0.555390 0.479180 -0.015570 
0.259020 17.241140 -2.041600 -3.906972 -5.029133 3.124828 -15.102356 13.107107 3.270671 6.390552 -2.747680 -18.435306 -14.129867 10.264785 25.009008 -0.515477 6.987355 2.475034 -0.108550 -0.534050 -0.393420 18.275049 -10.715905 2.846360 -3.910768 3.636576 -17.351695 13.025411 -9.507620 26.148766 -0.516972 -5.304128 2.646271 -0.132640 1.201140 0.689580 -3.605929 -1.670534 -7.591476 9.721640 -0.028776 12.061234 -3.336748 1.206309 6.230290 2.989595 -2.548203 -10.959912 -5.025176 6.784580 28.889698 -4.606190 5.062950 -6.499380 -16.394219 -13.074587 5.024557 -43.239356 -6.525100 -2.948139 -26.803108 -27.940292 2.811392 -4.341277 2.797456 0.749400 0.687970 -0.178300 0.467470 10.750134 16.058993 7.552235 47.363974 9.390968 -6.011122 31.886137 32.931824 5.461681 1.692089 -1.363555 -0.568090 0.554010 0.472690 -0.008340 
0.262140 17.193430 -2.048320 -3.878111 -4.924386 3.448487 -15.123699 12.940990 3.383218 7.301626 -3.107059 -19.810178 -15.606970 11.261269 26.546635 -0.431671 7.473914 2.298130 -0.105100 -0.525980 -0.397430 18.282787 -10.564708 2.867749 -4.855604 4.118337 -18.652453 14.486739 -10.349751 27.709778 -0.567250 -5.655156 2.513749 -0.116180 1.223040 0.689810 -3.600185 -1.675572 -7.659519 9.648801 -0.133438 12.248080 -3.428567 1.148100 5.805335 2.926562 -2.575054 -10.706270 -4.928357 6.886467 27.636166 -4.576050 5.104510 -6.327340 -16.070933 -12.164960 4.702077 -41.489314 -5.965874 -2.881091 -28.231419 -28.215759 3.290709 -4.362830 2.822082 0.727000 0.708780 -0.198490 0.474160 10.534010 15.117217 7.267192 45.706768 8.882674 -5.865331 33.765523 33.502407 6.124162 1.682561 -1.401690 -0.574880 0.558520 0.470800 -0.003410 
